HIERARCHY
ROOT Hips
{
	OFFSET	0.00	0.00	0.00
	CHANNELS 6 Xposition Yposition Zposition Zrotation Xrotation Yrotation
	JOINT Spine
	{
		OFFSET	 0.00	0.01	 0.00
		CHANNELS 3 Zrotation Xrotation Yrotation
		JOINT Spine1
		{
			OFFSET	 0.00	 2.45913012437421	 0.00
			CHANNELS 3 Zrotation Xrotation Yrotation
            JOINT Neck
            {
                OFFSET	 0.00	 2.48462964506057	 0.00
                CHANNELS 3 Zrotation Xrotation Yrotation
                JOINT Head
                {
                    OFFSET	 0.00	 0.927524780924562	 0.00
                    CHANNELS 3 Zrotation Xrotation Yrotation
                    End Site 
                    {
                        OFFSET	 0.00	 1.14999962169752	 0.00
                    }
                }
            }
			JOINT LeftShoulder
			{
				OFFSET	 0.00	 2.48462964506057	 0.00
				CHANNELS 3 Zrotation Xrotation Yrotation
				JOINT LeftUpArm
				{
					OFFSET	 0.00	 1.24881979654096	 0.00
					CHANNELS 3 Zrotation Xrotation Yrotation
					JOINT LeftForeArm
					{
						OFFSET	 0.00	2.59758046908119	 0.00
						CHANNELS 3 Zrotation Xrotation Yrotation
						JOINT LeftHand
						{
							OFFSET	 0.00	2.45542024364365	 0.00
							CHANNELS 3 Zrotation Xrotation Yrotation
							JOINT LeftHandThumb 
							{
								OFFSET	 0.00	0.00	 0.00
								CHANNELS 3 Zrotation Xrotation Yrotation
								End Site
								{
									OFFSET	 0.00	0.00	1.00000003353624
								}
							}
							JOINT L_Wrist_End 
							{
								OFFSET	 0.00	0.99999967115358	 0.00
								CHANNELS 3 Zrotation Xrotation Yrotation
								End Site 
								{
									OFFSET	 0.00	 0.00	 0.00
								}
							}
						}
					}
				}
			}
			JOINT RightShoulder
			{
				OFFSET	 0.00	 2.48462964506057	 0.00
				CHANNELS 3 Zrotation Xrotation Yrotation
				JOINT RightUpArm
				{
					OFFSET	 0.00	 1.24881979654096	 0.00
					CHANNELS 3 Zrotation Xrotation Yrotation
					JOINT RightForeArm
					{
						OFFSET	 0.00	2.59758046908119	 0.00
						CHANNELS 3 Zrotation Xrotation Yrotation
						JOINT RightHand
						{
							OFFSET	 0.00	2.45542024364365	 0.00
							CHANNELS 3 Zrotation Xrotation Yrotation
							JOINT RightHandThumb 
							{
								OFFSET	 0.00	0.00	 0.00
								CHANNELS 3 Zrotation Xrotation Yrotation
								End Site
								{
									OFFSET	 0.00	0.00	1.00000003353624
								}
							}
							JOINT R_Wrist_End 
							{
								OFFSET	 0.00	0.99999967115358	 0.00
								CHANNELS 3 Zrotation Xrotation Yrotation
								End Site 
								{
									OFFSET	 0.00	 0.00	 0.00
								}
							}
						}
					}
				}
			}
		}
	}
	JOINT LeftUpLeg
	{
		OFFSET	 1.2719394002717	 0.00	 0.00
		CHANNELS 3 Zrotation Xrotation Yrotation
		JOINT LeftLowLeg
		{
			OFFSET	 0.00	-4.3429100912261	 0.00
			CHANNELS 3 Zrotation Xrotation Yrotation
			JOINT LeftFoot
			{
				OFFSET	 0.00	-4.48767017425826	 0.00
				CHANNELS 3 Zrotation Xrotation Yrotation
				JOINT LeftToeBase
                {
                    OFFSET	 0.00	0.00	 1.51507020887566
                    CHANNELS 3 Zrotation Xrotation Yrotation
                    End Site 
                    {
                        OFFSET	 0.00	0.00	 0.75000010571191
                    }
                }
			}
		}
	}
	JOINT RightUpLeg
	{
		OFFSET	 -1.2719393604653	 0.00	 0.00
		CHANNELS 3 Zrotation Xrotation Yrotation
		JOINT RightLowLeg
		{
			OFFSET	 0.00	-4.3429100912261	 0.00
			CHANNELS 3 Zrotation Xrotation Yrotation
			JOINT RightFoot
			{
				OFFSET	 0.00	-4.48767017425826	 0.00
				CHANNELS 3 Zrotation Xrotation Yrotation
				JOINT RightToeBase
                {
                    OFFSET	 0.00	0.00	 1.51507020887566
                    CHANNELS 3 Zrotation Xrotation Yrotation
                    End Site 
                    {
                        OFFSET	 0.00	0.00	 0.749999965609858
                    }
                }   
			}
		}
	}
}
MOTION 
Frames:	10 
Frame Time: 0.02 
  -0.8098069763183594 -1.8613999938964845 6.739080200195312 144.787 79.5968 -870.765 -1.67081 -4.54964 10.1282 -3.29615 3.905 -8.08216 9.21939 43.1286 366.146 -62.4469 -74.5194 665.378 -112.0229 -4.94328 367.71 -44.7586 4.17244 5.31831 0.0 102.942 0.0 34.2353 -33.7113 -14.8263 0.0 0.0 0.0 0.0 0.0 0.0 114.1389 -6.46707 -362.073 42.4752 4.6366 -359.746 0.0 116.572 0.0 -23.0679 -24.6855 36.7308 0.0 0.0 0.0 0.0 0.0 0.0 -6.02141 -75.7035 -715.2 0.0 75.6964 0.0 -2.22785 3.9495 4.39101 0.0 -41.9321 0.0 1.29097 -77.9457 -1.33317 0.0 79.8733 0.0 27.0231 -1.2665005 5.23085 0.0 -24.431469 0.0 
  -0.8125150299072266 -1.8641400146484375 6.737449951171875 145.597 79.779 -871.347 -1.45494 -5.00683 10.0795 -3.32629 3.87359 -8.19857 9.61213 44.0398 365.434 -62.3983 -74.155 665.63 -112.1524 -5.03595 367.714 -44.642 4.00305 5.45687 0.0 102.64 0.0 34.2684 -33.7746 -14.7616 0.0 0.0 0.0 0.0 0.0 0.0 114.4774 -6.51713 -362.132 42.7474 4.21801 -359.788 0.0 116.278 0.0 -23.2196 -24.3106 36.7222 0.0 0.0 0.0 0.0 0.0 0.0 -6.7723 -75.6693 -716.312 0.0 75.6016 0.0 -2.35948 5.00873 4.29463 0.0 -41.837097 0.0 0.599991 -77.7812 -2.24635 0.0 79.757 0.0 26.7694 -0.6668997 4.93407 0.0 -24.287079 0.0 
  -0.8132250213623047 -1.8606700134277343 6.734509887695313 145.077 79.8154 -870.823 -1.50908 -5.35346 10.0763 -3.32633 3.84159 -8.2019 9.86522 44.6719 364.875 -62.2667 -73.8062 665.853 -112.3071 -5.18304 367.484 -44.5757 3.79951 5.62167 0.0 102.339 0.0 34.0087 -33.8246 -14.9962 0.0 0.0 0.0 0.0 0.0 0.0 114.7603 -6.51263 -361.962 42.9834 3.76369 -359.886 0.0 116.051 0.0 -23.3112 -24.3475 36.1067 0.0 0.0 0.0 0.0 0.0 0.0 -6.99403 -75.6254 -716.549 0.0 75.3186 0.0 -1.15937 6.8777905 4.53648 0.0 -41.7437 0.0 0.436162 -77.7944 -2.35282 0.0 79.6314 0.0 26.1604 0.39710045 4.4301 0.0 -24.07547 0.0 
  -0.8130460357666016 -1.8553599548339843 6.730490112304688 144.834 79.8593 -870.587 -1.51438 -5.65002 10.1108 -3.30945 3.82071 -8.17418 9.88165 45.1998 364.611 -62.2222 -73.4868 665.852 -112.3873 -5.25877 367.465 -44.6097 3.71644 5.65479 0.0 102.051 0.0 33.7786 -33.754 -15.2187 0.0 0.0 0.0 0.0 0.0 0.0 115.0117 -6.53691 -361.944 43.212 3.44428 -359.782 0.0 115.875 0.0 -23.4914 -24.3346 36.1248 0.0 0.0 0.0 0.0 0.0 0.0 -7.01848 -75.6457 -716.423 0.0 75.0294 0.0 1.06105 8.61846 5.14926 0.0 -41.8143 0.0 0.33098 -77.8538 -2.5176 0.0 79.5107 0.0 24.9132 1.5902004 3.69694 0.0 -24.147999 0.0 
  -0.8120050048828125 -1.8491099548339844 6.7264599609375 144.725 79.9019 -870.504 -1.49919 -5.98843 10.1443 -3.27082 3.95631 -8.13709 9.93925 45.5115 364.34 -62.0083 -73.2231 666.144 -112.4405 -5.32715 367.285 -44.7395 3.64321 5.79084 0.0 101.792 0.0 33.7528 -33.7476 -15.5006 0.0 0.0 0.0 0.0 0.0 0.0 115.241 -6.47447 -361.855 43.4922 3.10093 -359.674 0.0 115.711 0.0 -24.6914 -24.5544 33.7109 0.0 0.0 0.0 0.0 0.0 0.0 -7.1955 -75.6779 -716.437 0.0 74.8391 0.0 3.05867 9.87148 6.00786 0.0 -42.2221 0.0 0.269039 -77.9241 -2.74668 0.0 79.3845 0.0 23.5011 2.3937998 2.82292 0.0 -24.04741 0.0 
  -0.8104239654541016 -1.8430099487304688 6.72197021484375 144.671 79.9672 -870.462 -1.48156 -6.29325 10.1645 -3.18649 4.08312 -8.11144 9.99767 45.761 364.059 -61.6745 -72.9449 666.591 -112.512695 -5.33059 367.361 -44.8605 3.6557 5.6397 0.0 101.537 0.0 33.6049 -33.717 -15.2124 0.0 0.0 0.0 0.0 0.0 0.0 115.4606 -6.2946 -362.041 43.6681 2.84153 -359.133 0.0 115.519 0.0 -24.7697 -24.4233 33.1261 0.0 0.0 0.0 0.0 0.0 0.0 -7.52067 -75.6944 -716.668 0.0 74.7564 0.0 4.41281 10.5745 6.75948 0.0 -42.1376 0.0 0.235552 -77.959 -2.97992 0.0 79.2852 0.0 22.5071 2.9755 2.03362 0.0 -24.08852 0.0 
  -0.8088349914550781 -1.8378300476074219 6.7181298828125 144.411 80.1241 -870.232 -1.46457 -6.48705 10.2092 -3.07975 4.20333 -8.0561 10.1149 45.9736 363.724 -61.4226 -72.6995 666.947 -112.5964 -5.28785 367.414 -45.0441 3.7162 5.56131 0.0 101.3 0.0 33.8128 -34.0432 -14.8437 0.0 0.0 0.0 0.0 0.0 0.0 115.685 -6.15728 -362.283 43.7878 2.70628 -358.534 0.0 115.327 0.0 -24.7465 -24.4533 33.1234 0.0 0.0 0.0 0.0 0.0 0.0 -7.85141 -75.6123 -717.018 0.0 74.7355 0.0 5.06048 10.94491 7.31656 0.0 -42.1003 0.0 0.437929 -77.8756 -2.94967 0.0 79.1618 0.0 20.9051 3.6590996 1.04242 0.0 -24.631191 0.0 
  -0.8066269683837891 -1.8328599548339843 6.715380249023437 143.912 80.3429 -869.717 -1.47179 -6.61315 10.1859 -2.89478 4.40556 -8.04984 9.96265 46.1404 363.749 -61.5033 -72.5261 666.872 -112.7035 -5.30647 367.298 -45.252 3.66314 5.49482 0.0 101.086 0.0 33.472 -34.2208 -15.1176 0.0 0.0 0.0 0.0 0.0 0.0 115.8721 -5.99769 -362.358 43.8777 2.52006 -358.139 0.0 115.078 0.0 -24.7267 -24.4162 33.1192 0.0 0.0 0.0 0.0 0.0 0.0 -8.48797 -75.4315 -717.797 0.0 74.7181 0.0 5.32073 11.13138 7.71695 0.0 -41.9208 0.0 0.488822 -77.7006 -3.09874 0.0 79.0103 0.0 19.9877 4.0872 0.245527 0.0 -23.98945 0.0 
  -0.8042289733886718 -1.8284700012207031 6.7125 143.488 80.5826 -869.277 -1.46943 -6.69892 10.185 -2.70253 4.58484 -8.02373 9.82429 46.2432 363.779 -61.4428 -72.3712 666.81 -112.7494 -5.23746 367.177 -45.4936 3.53426 5.55176 0.0 100.902 0.0 33.3996 -34.3306 -15.1633 0.0 0.0 0.0 0.0 0.0 0.0 116.032196 -5.85201 -362.434 43.9794 2.33547 -357.67 0.0 114.84 0.0 -24.4558 -24.3381 33.383 0.0 0.0 0.0 0.0 0.0 0.0 -9.26851 -75.2505 -718.831 0.0 74.716 0.0 5.25619 11.2869 8.01824 0.0 -41.9039 0.0 0.807917 -77.4903 -2.88062 0.0 78.891 0.0 19.8135 4.1856003 -0.327299 0.0 -23.90164 0.0 
  -0.8021510314941406 -1.8242999267578126 6.71031982421875 142.965 80.7796 -868.72 -1.50307 -6.77803 10.1381 -2.52533 4.74607 -8.03729 9.81335 46.2658 363.696 -61.3278 -72.2614 666.973 -112.7574 -5.21503 367.14 -45.7344 3.46109 5.68642 0.0 100.752 0.0 33.7871 -34.3061 -14.7362 0.0 0.0 0.0 0.0 0.0 0.0 116.1869 -5.64506 -362.535 44.0489 2.1176 -357.254 0.0 114.66 0.0 -24.2189 -24.4773 33.6948 0.0 0.0 0.0 0.0 0.0 0.0 -10.1675 -75.0679 -719.985 0.0 74.6825 0.0 5.0609 11.38914 8.3028 0.0 -41.849197 0.0 1.2187 -77.3306 -2.41416 0.0 78.8332 0.0 19.8738 4.3073997 -0.722475 0.0 -23.91795 0.0 
